<svg xmlns="http://www.w3.org/2000/svg" width="64" height="64" viewBox="0 0 64 64">
  <rect width="64" height="64" rx="14" fill="#0a0a0a"/>
  <g fill="#f1f1f3">
    <!-- cranium -->
    <path d="M32 12c-11 0-19 7.5-19 18 0 6 2.8 10.2 6.5 12.8 1.2.8 1.9 1.7 2 3.1l.4 4.4c.1 1.4 1.3 2.4 2.7 2.4h2.2v-4.3c0-.7.6-1.3 1.3-1.3s1.3.6 1.3 1.3v4.3h5.2v-4.3c0-.7.6-1.3 1.3-1.3s1.3.6 1.3 1.3v4.3h2.2c1.4 0 2.6-1 2.7-2.4l.4-4.4c.1-1.4.8-2.3 2-3.1C48.2 40.2 51 36 51 30c0-10.5-8-18-19-18z"/>
  </g>
  <!-- eyes -->
  <circle cx="24" cy="31" r="5.5" fill="#0a0a0a"/>
  <circle cx="40" cy="31" r="5.5" fill="#0a0a0a"/>
  <!-- nose -->
  <path d="M32 35l3 6h-6z" fill="#0a0a0a"/>
</svg>
